<svg id="Layer_1" data-name="Layer 1" xmlns="http://www.w3.org/2000/svg" viewBox="0 0 500 500"><defs><style>.cls-1{fill:#fff;}.cls-2{fill:#ed0600;}.cls-3{fill:#ffd600;}.cls-4{fill:#ed0700;}</style></defs><title>Artboard 1</title><path class="cls-1" d="M498.78,498.78H1.22V1.22H498.78ZM250,487.64c131.62,0,238.45-106.72,238.37-238.35C488.32,116.94,381.07,10.94,250,10.94S11.67,116.94,11.67,249.29,118.94,487.66,250,487.64Z"/><path class="cls-2" d="M250,487.64c-131.09,0-238.36-106-238.36-238.35S119,10.94,250,10.94s238.3,106,238.38,238.35C488.48,380.92,381.65,487.64,250,487.64ZM175,249.3q0,42.46,0,84.91c0,2-.06,4-.25,6-.41,4.15-2.68,7.5-7.14,8.46a23.21,23.21,0,0,1-4.92.5H143.54c-.47,0-.93,0-1.39,0-1.27.1-1.66.45-1.76,1.69-.06.72,0,1.46,0,2.18.14,5.17.13,10.34,0,15.51-.08,3.15.19,3.41,3.32,3.4l60.06,0,2,0a1.37,1.37,0,0,1,1.52,1.46c0,.33,0,.67,0,1q0,11.73,0,23.46c0,.46,0,.93,0,1.39a1.39,1.39,0,0,0,1.37,1.42c.53.05,1.06,0,1.59,0h25.65a14,14,0,0,0,1.59,0,1.32,1.32,0,0,0,1.26-1.31c0-.53,0-1.06,0-1.59,0-7.62,0-15.24,0-22.87,0-3,0-3,3-3h29.63c3.33,0,3.5.22,3.47,3.64-.05,7.63-.05,15.25-.06,22.87,0,2,.28,2.25,2.32,2.28,1,0,2,0,3,0h23.47c2.7,0,2.7,0,2.7-2.78v-7.36q0-10.14,0-20.28c0-1.94.14-2.13,2-2.63a119.12,119.12,0,0,0,29.2-12.32,112.06,112.06,0,0,0,27.67-22.42c11.58-13.06,19.15-28.21,23.53-45a134.3,134.3,0,0,0,3.7-20.5c.61-6.13,1-12.26,1-18.42,0-2.65-.14-5.29-.24-7.94-.15-3.78-.5-7.53-1-11.27a125.66,125.66,0,0,0-6.65-27.13,119,119,0,0,0-27.8-43.76,107.25,107.25,0,0,0-46.78-27.07c-.83-.24-1.67-.41-2.49-.66-1.77-.55-2.11-1-2.15-2.84,0-.46,0-.92,0-1.39l.06-26c0-2.86-.14-3-3.06-3H277.78c-3,0-3,0-3,2.92v18.3c0,1.85,0,3.71,0,5.57s-.31,2-2.06,2.14h-31a11.94,11.94,0,0,1-1.58-.07,1.33,1.33,0,0,1-1.33-1.44v-1.39q0-11.84,0-23.66c0-2.27-.11-2.37-2.35-2.37H209.76c-.33,0-.67,0-1,0a1.3,1.3,0,0,0-1.45,1.3,10.71,10.71,0,0,0,0,1.39l-.06,22.86c0,3.38,0,3.39-3.41,3.39H143.75c-.46,0-.93,0-1.39,0-1.61.07-2,.38-2,2,0,1.46.08,2.92.07,4.37,0,4.64-.07,9.28-.07,13.92,0,2,.47,2.41,2.49,2.46h.79l18.1-.05a34.07,34.07,0,0,1,6.13.46,7.82,7.82,0,0,1,6.78,7.46c.15,2.44.26,4.89.26,7.34Q175,207,175,249.3Z"/><path class="cls-3" d="M175,249.3q0-42.26,0-84.51c0-2.45-.11-4.9-.26-7.34a7.82,7.82,0,0,0-6.78-7.46,34.07,34.07,0,0,0-6.13-.46l-18.1.05h-.79c-2-.05-2.49-.46-2.49-2.46,0-4.64.06-9.28.07-13.92,0-1.45-.09-2.91-.07-4.37,0-1.66.37-2,2-2,.46,0,.93,0,1.39,0h60.06c3.41,0,3.41,0,3.41-3.39l.06-22.86a10.71,10.71,0,0,1,0-1.39,1.3,1.3,0,0,1,1.45-1.3c.33,0,.67,0,1,0H236.4c2.24,0,2.35.1,2.35,2.37q0,11.84,0,23.66v1.39a1.33,1.33,0,0,0,1.33,1.44,11.94,11.94,0,0,0,1.58.07h31c1.75-.09,2-.37,2.06-2.14s0-3.72,0-5.57v-18.3c0-2.92,0-2.92,3-2.92h25.46c2.92,0,3.06.12,3.06,3l-.06,26.05c0,.47,0,.93,0,1.39,0,1.83.38,2.29,2.15,2.84.82.25,1.66.42,2.49.66a107.25,107.25,0,0,1,46.78,27.07,119,119,0,0,1,27.8,43.76,125.66,125.66,0,0,1,6.65,27.13c.51,3.74.86,7.49,1,11.27.1,2.65.24,5.29.24,7.94,0,6.16-.43,12.29-1,18.42a134.3,134.3,0,0,1-3.7,20.5c-4.38,16.8-11.95,31.95-23.53,45a112.06,112.06,0,0,1-27.67,22.42,119.12,119.12,0,0,1-29.2,12.32c-1.84.5-2,.69-2,2.63q0,10.14,0,20.28v7.36c0,2.78,0,2.78-2.7,2.78H280.07c-1,0-2,0-3,0-2,0-2.32-.28-2.32-2.28,0-7.62,0-15.24.06-22.87,0-3.42-.14-3.64-3.47-3.64H241.73c-3,0-3,0-3,3,0,7.63,0,15.25,0,22.87,0,.53,0,1.06,0,1.59a1.32,1.32,0,0,1-1.26,1.31,14,14,0,0,1-1.59,0H210.22c-.53,0-1.06,0-1.59,0a1.39,1.39,0,0,1-1.37-1.42c0-.46,0-.93,0-1.39q0-11.73,0-23.46c0-.33,0-.67,0-1a1.37,1.37,0,0,0-1.52-1.46l-2,0-60.06,0c-3.13,0-3.4-.25-3.32-3.4.12-5.17.13-10.34,0-15.51,0-.72,0-1.46,0-2.18.1-1.24.49-1.59,1.76-1.69.46,0,.92,0,1.39,0h19.09a23.21,23.21,0,0,0,4.92-.5c4.46-1,6.73-4.31,7.14-8.46.19-2,.24-4,.25-6Q175,291.76,175,249.3Zm58.91-1q0,44.53,0,89.08c0,.86,0,1.73.07,2.59a16.09,16.09,0,0,0,1,4.63,6.23,6.23,0,0,0,4.67,3.89,28.71,28.71,0,0,0,6.32.57c5.83,0,11.66.06,17.49-.13A70,70,0,0,0,291,342.19,56,56,0,0,0,315.81,320c4.72-7.8,7.45-16.35,9.24-25.24,2.12-10.49,2.69-21.13,3-31.78.26-8.54.33-17.08-.17-25.63-.24-4.16-.48-8.32-.83-12.47a174.22,174.22,0,0,0-2.89-20.24,88.88,88.88,0,0,0-10.9-28.84c-6.72-11-16-18.81-28.53-22.43-8.5-2.46-17.27-3.33-26.08-3.69a94.83,94.83,0,0,0-14.1.36c-2.55.28-5.16.32-7.56,1.48a4.92,4.92,0,0,0-2.78,3.41,15.82,15.82,0,0,0-.37,3.94Z"/><path class="cls-4" d="M233.86,248.33V158.84a15.82,15.82,0,0,1,.37-3.94,4.92,4.92,0,0,1,2.78-3.41c2.4-1.16,5-1.2,7.56-1.48a94.83,94.83,0,0,1,14.1-.36c8.81.36,17.58,1.23,26.08,3.69,12.51,3.62,21.81,11.41,28.53,22.43a88.88,88.88,0,0,1,10.9,28.84,174.22,174.22,0,0,1,2.89,20.24c.35,4.15.59,8.31.83,12.47.5,8.55.43,17.09.17,25.63-.33,10.65-.9,21.29-3,31.78-1.79,8.89-4.52,17.44-9.24,25.24A56,56,0,0,1,291,342.19,70,70,0,0,1,263.45,349c-5.83.19-11.66.12-17.49.13a28.71,28.71,0,0,1-6.32-.57,6.23,6.23,0,0,1-4.67-3.89,16.09,16.09,0,0,1-1-4.63c-.08-.86-.07-1.73-.07-2.59Q233.86,292.88,233.86,248.33Z"/></svg>